<svg _ngcontent-ng-c2420077013="" xmlns="http://www.w3.org/2000/svg" viewBox="0 0 493.78 112.15" preserveAspectRatio="xMidYMid meet" class="logo__svg"><defs _ngcontent-ng-c2420077013=""><style _ngcontent-ng-c2420077013=""> .cls-1 { fill: var(--infoui-color-logo-inforadio) !important; } .cls-2 { fill: #f7941d; } .cls-3 { fill: #fbb040; } </style></defs><title _ngcontent-ng-c2420077013="">InfoRadio</title><g _ngcontent-ng-c2420077013="" id="Layer_2" data-name="Layer 2"><g _ngcontent-ng-c2420077013="" id="Layer_1-2" data-name="Layer 1"><path _ngcontent-ng-c2420077013="" d="M45.69,42.72a7,7,0,0,1,8.64,2.81c1.2,2,1,4.37,1,6.59v52.11A7.48,7.48,0,0,1,53,110.12a7.08,7.08,0,0,1-10.66-1.69,6.65,6.65,0,0,1-1-3.65c-.08-31.28,0-22.49,0-53.77-.36-3.3,1-7.11,4.33-8.29" class="cls-1"></path><path _ngcontent-ng-c2420077013="" d="M151.76,25.56A21.52,21.52,0,0,1,169.05,14.5c2.93-.12,6.42-.79,8.8,1.39a6.2,6.2,0,0,1-.55,9.51c-2.16,1.68-5,.88-7.52,1.37a8.41,8.41,0,0,0-6.58,5.87c-1.16,3.08-.74,6.4-.87,9.61,3.41-.16,6.83-.09,10.24-.06a6,6,0,0,1,5.85,5.93A6.11,6.11,0,0,1,173,54.33c-3.53.13-7.07,0-10.6.05,0,20.62,0,29.79,0,50.4a6.8,6.8,0,1,1-13.59.33c0-20.72,0-30,0-50.71-2.84-.18-6.2.63-8.51-1.5a6.17,6.17,0,0,1,.16-9.46c2.38-1.9,5.62-1.15,8.43-1.23-.39-5.66,0-11.64,2.91-16.65" class="cls-1"></path><path _ngcontent-ng-c2420077013="" d="M95.57,41.67a28.31,28.31,0,0,1,23.59,6c6,5,8.73,12.82,8.72,20.42,0,16,0,20.66,0,36.71a6.79,6.79,0,0,1-13.57.56c-.07-16,0-20.6,0-36.63,0-4.27-1.33-8.73-4.42-11.79a12.4,12.4,0,0,0-10.68-3.48A12.77,12.77,0,0,0,89.35,61a18.58,18.58,0,0,0-1.64,8.29c0,15.65,0,19.85,0,35.51A6.79,6.79,0,0,1,75,108.4a7.68,7.68,0,0,1-.91-4.16c0-15.66,0-19.87,0-35.52,0-6,1.45-12.26,5.11-17.16a26.73,26.73,0,0,1,16.34-9.89" class="cls-1"></path><path _ngcontent-ng-c2420077013="" d="M210.66,53.74c-6.19,1.45-10.08,7.78-10.2,13.89-.16,8.77,0,6.1-.07,14.87,0,3.49.2,7.13,1.93,10.24a12.9,12.9,0,0,0,9.73,7,12.62,12.62,0,0,0,11.61-4.47,17.06,17.06,0,0,0,3.61-11.1c0-9,0-6.51,0-15.48,0-4.31-1.4-8.79-4.59-11.82a12.68,12.68,0,0,0-12-3.16m-.28-12.41A28.42,28.42,0,0,1,234,49.54c4.75,4.94,6.78,11.91,6.82,18.65,0,9.33,0,7.21,0,16.54,0,6.09-1.54,12.36-5.35,17.22-4.74,6.15-12.4,9.57-20,10.16a29.16,29.16,0,0,1-20.08-6.72,24,24,0,0,1-7.35-11.61c-1.51-5-1.26-10.21-1.27-15.34,0-7.25,0-3,0-10.29,0-6.42,1.9-13,6.19-17.89a27.86,27.86,0,0,1,17.38-8.93" class="cls-1"></path><path _ngcontent-ng-c2420077013="" d="M76.87,44.57s0-.48,0-1.38a39.36,39.36,0,0,0-.37-4A39.61,39.61,0,0,0,75,33a43.1,43.1,0,0,0-3.26-7.59,50.55,50.55,0,0,0-5.56-8.2A51.5,51.5,0,0,0,58.1,9.43,44.84,44.84,0,0,0,47.41,3.2a43.9,43.9,0,0,0-6.25-2C40.06.93,39,.68,37.83.52L37,.4,36.08.3,34.63.14C33.57.06,32.24,0,31.12,0s-2.28,0-3.44.09a37,37,0,0,0-6.94,1.06A28,28,0,0,0,8.18,7.88,25.79,25.79,0,0,0,1.12,19.46a27,27,0,0,0-.83,11.6,28.53,28.53,0,0,0,2.8,8.81,28.87,28.87,0,0,0,3.79,5.65,26.3,26.3,0,0,0,3.05,3c.75.63,1.18.94,1.18.94l1.28-.76s-.05-.52-.19-1.44-.32-2.26-.49-3.9-.3-3.59-.29-5.7a35.39,35.39,0,0,1,.7-6.65,23,23,0,0,1,2.43-6.52,18.11,18.11,0,0,1,2-2.88A22.65,22.65,0,0,1,18.93,19a26.3,26.3,0,0,1,6.43-4.52A21.57,21.57,0,0,1,29.56,13c.75-.22,1.53-.35,2.31-.5s1.4-.19,2.27-.26l1.45,0h1.12c.8,0,1.6.07,2.4.13a33.78,33.78,0,0,1,4.83.87,43.19,43.19,0,0,1,9.19,3.66A46,46,0,0,1,61,22.21a44.2,44.2,0,0,1,6.13,6.21,44.77,44.77,0,0,1,4.23,6.15,44.34,44.34,0,0,1,2.5,5.26,37.16,37.16,0,0,1,1.17,3.59c.22.88.33,1.35.33,1.35Z" class="cls-2"></path><path _ngcontent-ng-c2420077013="" d="M65.32,44.45s0-.25,0-.72a18.21,18.21,0,0,0-.2-2.1,18.78,18.78,0,0,0-.76-3.2,22,22,0,0,0-1.7-4,26.36,26.36,0,0,0-2.9-4.29,27,27,0,0,0-4.23-4.07,23.51,23.51,0,0,0-5.58-3.26,24,24,0,0,0-3.27-1.06c-.57-.12-1.14-.25-1.73-.33l-.44-.07L44,21.33l-.75-.08c-.55,0-1.25-.08-1.84-.07a17.89,17.89,0,0,0-1.79,0,18.15,18.15,0,0,0-3.62.56,14.6,14.6,0,0,0-6.57,3.51,13.42,13.42,0,0,0-3.68,6.05,14,14,0,0,0-.44,6.05A15,15,0,0,0,28.78,45a14.33,14.33,0,0,0,1.59,1.58c.39.33.61.49.61.49l.67-.4s0-.27-.1-.75-.16-1.18-.25-2-.16-1.87-.15-3a18.45,18.45,0,0,1,.36-3.48A12.25,12.25,0,0,1,32.78,34a9.06,9.06,0,0,1,1-1.5,11.56,11.56,0,0,1,1.26-1.37,13.81,13.81,0,0,1,3.36-2.36,10.54,10.54,0,0,1,2.19-.81,11.81,11.81,0,0,1,1.21-.27c.42-.06.73-.09,1.18-.13l.76,0h.3s-.15,0-.06,0h.35c.41,0,.83,0,1.25.07a16.73,16.73,0,0,1,2.51.45,23.3,23.3,0,0,1,4.81,1.91,24.56,24.56,0,0,1,4.12,2.83A23.83,23.83,0,0,1,60.25,36a23.19,23.19,0,0,1,2.21,3.21A22.44,22.44,0,0,1,63.76,42a14.91,14.91,0,0,1,.61,1.87l.18.7Z" class="cls-3"></path><path _ngcontent-ng-c2420077013="" d="M367.2,64.66c-.3,6.42-.06,9.21-.12,15.64.06,4.57-.47,9.41,1.59,13.64a9.87,9.87,0,0,0,8,5.88c4.22.33,8.47,0,12.7.18-.19-16.86,0-30.11-.1-47-4.49.22-9-.25-13.5.27-5.25.94-8.23,6.39-8.53,11.36m22.05-42.08a6,6,0,0,1,6.3-6.25c3.35-.15,6.07,3,6,6.24,0,28.48,0,53.33,0,81.82a6.23,6.23,0,0,1-4.86,6.43c-3.17.32-6.36.07-9.53.15-5.62-.19-11.43.62-16.85-1.25a21,21,0,0,1-12.92-11,29.1,29.1,0,0,1-2.57-12.94c0-7.64,0-11.64,0-19.28,0-5.48,1.32-11.14,4.63-15.62,4.28-5.76,11.57-8.83,18.66-8.79,3.72,0,7.44,0,11.16,0,0-6.51,0-13,0-19.51" class="cls-2"></path><path _ngcontent-ng-c2420077013="" d="M422.29,17.59c4.73-1.35,9.87,3.15,9,8a7.36,7.36,0,1,1-9-8" class="cls-2"></path><path _ngcontent-ng-c2420077013="" d="M422.85,41.49a6.07,6.07,0,0,1,7.27,5.81c.1,19.63,0,35.63,0,55.26.06,2.56.22,5.59-1.93,7.42a6.15,6.15,0,0,1-8.91-.53,6.62,6.62,0,0,1-1.43-4.48c0-19.44,0-35.27,0-54.73a14.63,14.63,0,0,1,.44-4.89,6,6,0,0,1,4.54-3.86" class="cls-2"></path><path _ngcontent-ng-c2420077013="" d="M466.72,52.46c-5.54,1.18-9.19,6.74-9.38,12.21-.21,8,0,12.42-.09,20.43-.36,5.51,1.56,11.84,6.81,14.48a11.56,11.56,0,0,0,13.25-1.86c2.94-2.73,4.17-6.84,4.19-10.76.05-8,0-12.46,0-20.5,0-4-1.1-8.15-4-11a11.32,11.32,0,0,0-10.79-3m-2.38-10.84a25.86,25.86,0,0,1,21.23,5.18A22,22,0,0,1,493.24,60c.7,3.73.52,7.53.52,11.3,0,6.41,0,9.19,0,15.61a26.23,26.23,0,0,1-3.13,13.27c-3.95,7.08-12,11.31-19.93,11.62A25.57,25.57,0,0,1,452,105.08c-4.59-4.34-6.83-10.7-6.93-16.93-.12-7.83,0-12-.06-19.87-.11-5.39.5-11,3.33-15.74,3.37-5.84,9.57-9.57,16-10.92" class="cls-2"></path><path _ngcontent-ng-c2420077013="" d="M276.15,42.14c2.85,0,6.13-.8,8.59,1.07a5.62,5.62,0,0,1,0,8.72c-2.83,2.13-6.61.39-9.68,1.78-3.51,1.53-5.52,5.44-5.49,9.18-.09,15.43,0,27.25-.05,42.68a6.12,6.12,0,0,1-6.27,6.07,6.24,6.24,0,0,1-6-6.64c0-15.26,0-26.88,0-42.15,0-5.28,1.38-10.79,5-14.75,3.51-3.83,8.71-5.66,13.81-6" class="cls-2"></path><path _ngcontent-ng-c2420077013="" d="M307,65.27c-.19,6.82,0,10-.08,16.83,0,4.12-.2,8.5,1.81,12.25a9.74,9.74,0,0,0,7.76,5.47c4.22.33,8.45,0,12.68.18-.18-16.86,0-30.11-.08-47-4.67.26-9.4-.36-14,.39-5.21,1.28-7.9,6.86-8.07,11.85m8.81-23.13c5.72-.2,11.48,0,17.21-.1,2.09,0,4.47-.09,6.12,1.43A6.65,6.65,0,0,1,341.41,49c0,19.68,0,35.72,0,55.39a6.2,6.2,0,0,1-5.39,6.49c-3.2.18-6.41,0-9.61.08-5.09-.15-10.31.52-15.27-1A21.53,21.53,0,0,1,299,101.67c-3.15-4.44-4.34-10-4.35-15.33,0-7.63,0-11.63,0-19.28,0-5.11.94-10.38,3.71-14.76,3.65-6,10.54-9.58,17.46-10.16" class="cls-2"></path></g></g></svg>